<?xml version="1.0" standalone="no"?>
<!DOCTYPE svg PUBLIC "-//W3C//DTD SVG 20010904//EN"
 "http://www.w3.org/TR/2001/REC-SVG-20010904/DTD/svg10.dtd">
<svg version="1.0" xmlns="http://www.w3.org/2000/svg"
 width="1177.000000pt" height="1177.000000pt" viewBox="0 0 1177.000000 1177.000000"
 preserveAspectRatio="xMidYMid meet">

<g transform="translate(0.000000,1177.000000) scale(0.100000,-0.100000)"
fill="#000000" stroke="none">
<path d="M5565 11754 c-1090 -70 -2066 -396 -2946 -985 -328 -218 -574 -423
-885 -733 -245 -245 -379 -398 -553 -631 -588 -785 -971 -1706 -1110 -2670
-46 -316 -55 -454 -55 -850 0 -396 9 -534 55 -850 108 -748 367 -1485 752
-2135 662 -1116 1664 -1979 2867 -2467 505 -205 1054 -338 1650 -400 238 -24
848 -24 1090 0 909 92 1733 363 2489 820 811 489 1509 1187 2000 2001 400 662
670 1417 780 2181 46 316 55 454 55 850 0 489 -24 741 -114 1185 -191 947
-618 1829 -1257 2595 -136 164 -468 502 -635 647 -778 677 -1706 1135 -2698
1332 -396 79 -663 106 -1095 110 -181 2 -357 2 -390 0z m612 -79 c250 -8 566
-46 843 -101 2027 -404 3690 -1864 4359 -3827 398 -1167 406 -2481 24 -3652
-698 -2140 -2571 -3689 -4793 -3964 -456 -56 -961 -58 -1410 -5 -1861 219
-3499 1328 -4408 2983 -718 1308 -898 2878 -497 4328 526 1895 1990 3404 3871
3988 369 115 779 197 1179 236 146 14 479 27 595 22 47 -1 153 -5 237 -8z"/>
<path d="M5608 11629 c-930 -38 -1913 -341 -2716 -836 -400 -247 -714 -495
-1053 -833 -232 -231 -357 -373 -532 -605 -537 -712 -895 -1515 -1061 -2385
-73 -379 -100 -670 -100 -1085 0 -658 89 -1208 294 -1825 197 -594 482 -1135
867 -1645 177 -235 292 -366 527 -600 461 -459 933 -801 1496 -1080 872 -434
1814 -634 2795 -594 1159 47 2270 441 3190 1132 308 232 690 587 925 862 484
566 857 1225 1090 1925 285 855 367 1758 239 2645 -120 834 -422 1634 -883
2335 -228 347 -448 614 -755 920 -457 455 -931 797 -1491 1075 -727 362 -1503
561 -2315 595 -137 5 -266 9 -285 8 -19 0 -123 -5 -232 -9z m638 -279 c37 -48
40 -55 23 -58 -20 -4 -114 59 -122 81 -8 23 5 38 31 35 18 -2 39 -21 68 -58z
m-1287 -69 c23 -27 41 -52 41 -55 0 -14 -39 -4 -70 19 l-34 25 -36 -35 c-62
-61 -77 -44 -33 36 42 75 76 77 132 10z m872 -165 c42 -111 55 -136 63 -123 7
8 32 74 56 146 45 131 45 131 76 131 l32 0 -68 -172 c-37 -95 -73 -192 -80
-215 -12 -39 -16 -43 -45 -43 -31 0 -32 2 -82 128 -28 70 -67 164 -86 209
l-36 82 52 3 c29 2 55 1 59 -2 3 -3 30 -67 59 -144z m532 -69 c37 -116 67
-215 67 -219 0 -5 -24 -8 -54 -8 l-53 0 -13 60 c-7 33 -18 65 -25 70 -8 6 -42
10 -76 8 l-63 -3 -22 -55 c-19 -48 -26 -55 -53 -58 -17 -2 -31 1 -31 7 0 6 45
101 100 211 94 187 102 200 128 200 27 0 28 -4 95 -213z m-878 171 c7 -46 45
-364 45 -383 0 -10 -9 -15 -27 -15 -21 1 -66 33 -178 130 -82 71 -150 128
-152 127 -2 -2 24 -213 32 -259 3 -21 0 -27 -22 -33 -14 -3 -27 -4 -29 -3 -3
3 -54 404 -54 423 0 3 16 5 36 5 31 0 54 -16 176 -120 78 -66 143 -119 144
-117 2 1 -4 50 -11 107 -21 155 -20 170 10 170 19 0 25 -6 30 -32z m1889 2
c19 -7 29 -23 44 -72 11 -35 18 -65 16 -67 -9 -9 -52 30 -64 59 -7 17 -18 29
-24 26 -6 -2 -27 -11 -47 -19 -22 -10 -40 -12 -49 -7 -17 10 -19 8 40 54 51
40 50 39 84 26z m-668 -23 c1 -1 18 -63 39 -137 21 -74 41 -141 44 -147 6 -11
128 141 172 215 11 17 22 22 44 20 35 -3 33 21 20 -261 -7 -156 -10 -177 -24
-173 -9 3 -33 8 -54 12 -33 6 -38 10 -33 28 3 11 9 73 12 136 l6 115 -51 -70
c-29 -38 -68 -94 -88 -122 -20 -29 -42 -53 -49 -53 -8 0 -20 25 -30 58 -8 31
-25 89 -35 127 -11 39 -23 77 -26 85 -6 18 -33 -55 -59 -163 -16 -70 -20 -78
-38 -73 -12 3 -26 6 -32 6 -9 0 69 253 121 399 4 9 14 11 33 6 15 -4 27 -7 28
-8z m-1654 -22 c3 -14 3 -27 -1 -29 -3 -2 -40 -7 -81 -10 -103 -10 -105 -11
-90 -80 6 -31 17 -56 23 -56 7 0 43 7 82 15 94 20 97 20 93 -12 -3 -26 -7 -28
-86 -39 -46 -6 -85 -14 -88 -16 -2 -3 1 -37 8 -76 11 -64 14 -71 32 -67 12 2
52 12 89 21 38 9 70 14 72 12 2 -1 6 -15 10 -29 l6 -25 -128 -22 c-70 -12
-135 -22 -144 -22 -12 0 -22 38 -49 193 -18 105 -33 199 -34 207 -1 11 27 20
114 37 156 29 167 29 172 -2z m-312 -41 c0 -4 -18 -62 -39 -130 l-40 -123 20
-81 c24 -102 24 -108 -3 -115 -70 -16 -69 -17 -90 75 l-20 85 -94 96 c-52 53
-94 100 -94 106 0 5 25 14 57 21 46 10 58 9 67 -2 71 -90 112 -134 119 -127 5
5 19 48 31 97 19 76 25 89 47 95 33 10 39 10 39 3z m2605 -53 c74 -34 105 -85
105 -175 0 -140 -90 -246 -209 -246 -66 0 -108 18 -148 63 -87 100 -35 307 92
363 43 19 113 17 160 -5z m-2966 -173 c23 -73 45 -153 47 -178 16 -147 -208
-233 -292 -112 -18 27 -114 293 -114 316 0 5 82 28 85 24 1 -2 10 -29 19 -62
35 -120 78 -225 103 -250 48 -49 123 -27 142 40 11 38 -5 110 -54 253 -14 41
-25 78 -25 82 0 6 13 12 41 18 3 0 24 -58 48 -131z m3202 91 c19 -7 36 -13 38
-15 4 -4 -119 -387 -127 -396 -9 -8 -92 13 -92 24 0 9 120 380 127 391 6 10
14 9 54 -4z m394 -140 c71 -28 131 -51 133 -53 1 -2 -3 -15 -9 -29 l-12 -26
-49 25 -48 24 -11 -27 c-37 -101 -122 -319 -124 -321 -8 -9 -90 28 -87 40 2 7
30 83 63 168 32 85 59 160 59 166 0 6 -21 17 -47 24 -27 7 -49 14 -51 15 -1 1
2 15 8 30 8 20 15 25 28 20 9 -4 75 -29 147 -56z m-4004 -6 c8 -39 3 -46 -23
-32 -30 16 -102 13 -138 -6 -34 -18 -69 -81 -70 -126 0 -54 32 -133 70 -171
33 -34 43 -38 86 -38 31 0 61 7 81 20 l33 20 -25 67 c-14 36 -22 70 -18 73 15
14 77 30 84 23 4 -5 19 -39 33 -77 25 -65 25 -70 9 -88 -28 -31 -154 -88 -208
-94 -103 -12 -184 34 -225 128 -44 103 -12 213 81 275 56 37 136 63 184 60 36
-2 40 -5 46 -34z m4370 -170 c74 -63 21 -183 -81 -183 -35 0 -34 6 -19 -130 7
-55 10 -103 7 -106 -3 -2 -27 7 -54 21 l-49 26 -5 107 -5 107 -42 -75 c-24
-41 -44 -79 -46 -83 -2 -7 -57 19 -86 39 -2 2 41 88 95 193 l99 190 79 -42
c43 -22 91 -51 107 -64z m-4716 -143 c89 -177 94 -190 76 -200 -11 -5 -25 -10
-31 -10 -6 0 -90 30 -187 66 -96 36 -176 64 -178 62 -2 -2 25 -60 60 -129 l64
-126 -26 -12 c-14 -6 -27 -10 -28 -9 -8 9 -185 369 -185 376 0 5 12 14 26 21
23 10 47 4 201 -54 97 -36 177 -65 179 -65 2 0 -23 55 -57 122 -57 114 -60
123 -43 135 10 7 21 13 26 13 4 0 51 -85 103 -190z m4867 78 c16 -7 28 -16 28
-19 0 -3 -31 -62 -70 -130 -38 -68 -73 -138 -76 -157 -9 -46 9 -79 52 -99 34
-17 37 -17 72 3 29 16 55 51 116 153 78 130 79 131 102 116 35 -23 46 -19 39
14 -8 37 7 46 45 26 l31 -16 -18 -30 c-19 -33 -55 -53 -82 -44 -12 3 -28 -16
-60 -73 -98 -169 -131 -202 -209 -202 -115 0 -202 103 -168 199 20 61 149 282
161 277 6 -3 22 -10 37 -18z m-2188 -73 c950 -86 1836 -452 2576 -1067 284
-235 617 -598 833 -906 292 -418 525 -904 666 -1392 127 -442 176 -801 176
-1295 0 -336 -8 -445 -51 -730 -107 -698 -399 -1412 -815 -1991 -216 -301
-538 -648 -809 -873 -742 -614 -1620 -978 -2575 -1066 -225 -21 -615 -21 -844
0 -836 77 -1618 369 -2301 858 -409 293 -814 703 -1103 1115 -409 584 -686
1271 -792 1961 -44 287 -50 382 -50 731 0 338 5 409 46 695 100 690 383 1397
796 1987 216 308 551 673 833 907 736 610 1621 978 2560 1065 205 19 644 19
854 1z m2654 -32 c15 -29 25 -153 13 -153 -23 0 -78 127 -68 155 8 20 44 19
55 -2z m-5853 -254 c59 -94 108 -177 109 -185 1 -14 -70 -63 -77 -53 -29 38
-217 353 -213 356 5 5 69 52 73 53 1 0 50 -77 108 -171z m5825 102 c27 -16 54
-43 68 -69 24 -43 45 -54 55 -28 3 8 3 23 1 33 -9 34 17 44 53 19 l32 -22 -22
-32 c-23 -32 -69 -58 -85 -48 -5 3 -13 -14 -16 -38 -9 -59 -62 -144 -113 -180
-85 -59 -208 -41 -270 41 -59 77 -36 206 51 292 75 74 158 85 246 32z m-6299
-41 c97 -29 90 -50 -16 -50 -69 0 -85 7 -85 35 0 20 9 30 29 34 2 1 35 -8 72
-19z m303 -195 c102 -66 185 -123 185 -126 1 -7 -78 -59 -88 -59 -5 0 -29 16
-54 35 -25 19 -48 35 -52 35 -3 0 -30 -17 -61 -37 -60 -40 -58 -33 -30 -124
14 -46 14 -46 -13 -62 l-28 -16 -51 227 c-48 211 -50 228 -34 240 9 7 22 11
29 10 7 -2 95 -57 197 -123z m6213 67 c21 -16 24 -32 38 -202 9 -102 17 -188
18 -192 1 -3 40 43 86 102 82 108 84 109 107 93 20 -13 22 -18 11 -32 -6 -9
-65 -85 -131 -169 -105 -134 -121 -150 -138 -141 -26 14 -26 14 -38 174 -5 77
-13 164 -16 192 l-6 53 -91 -115 c-90 -116 -91 -116 -110 -96 -20 20 -20 20
29 83 153 197 209 268 214 268 3 0 15 -8 27 -18z m-6537 -102 c-10 -8 -30 -23
-44 -33 l-26 -18 116 -146 115 -147 -38 -32 c-21 -18 -41 -29 -44 -26 -4 4
-56 71 -117 149 l-110 142 -42 -36 -42 -36 -20 20 -20 20 128 101 127 100 18
-22 c18 -20 18 -22 -1 -36z m6984 -271 c55 -28 120 -92 142 -141 l18 -40 -25
-19 c-33 -26 -36 -24 -42 21 -16 120 -136 166 -240 94 -99 -70 -128 -166 -73
-239 47 -61 63 -61 123 -2 l53 51 35 -34 35 -34 -61 -62 -61 -62 -55 32 c-147
83 -213 226 -157 337 18 37 96 104 136 117 45 15 122 7 172 -19z m-7330 -4
c24 -36 20 -45 -19 -45 -107 0 -155 -107 -94 -207 51 -82 138 -130 203 -112
41 11 91 66 101 108 8 37 17 39 34 7 16 -29 -2 -68 -56 -122 -131 -131 -328
-82 -379 94 -20 69 -6 133 42 197 29 37 122 105 145 105 4 0 14 -11 23 -25z
m7673 -437 c-29 -26 -55 -47 -59 -48 -20 -1 -3 -31 50 -88 l57 -63 55 50 c30
28 60 50 65 51 10 0 70 -69 63 -74 -1 -1 -71 -61 -155 -134 -83 -73 -156 -132
-161 -132 -5 0 -22 16 -36 35 l-27 35 38 32 c21 18 55 49 76 68 l38 35 -60 67
-59 67 -74 -64 c-40 -36 -75 -65 -79 -65 -3 0 -20 15 -38 34 l-32 33 162 141
163 141 32 -37 33 -37 -52 -47z m-7904 69 c81 -48 127 -124 127 -210 0 -49
-16 -86 -53 -126 -77 -81 -176 -81 -278 0 -80 64 -115 164 -85 244 20 50 82
112 123 121 16 3 32 7 38 8 23 6 86 -13 128 -37z m-245 -376 c90 -66 166 -121
169 -124 8 -9 -51 -78 -63 -73 -6 2 -44 28 -84 57 l-72 53 -25 -29 c-53 -66
-85 -117 -75 -124 44 -28 151 -107 152 -113 1 -16 -46 -77 -56 -73 -23 7 -334
237 -334 246 0 14 42 69 53 69 4 0 37 -20 71 -45 l63 -44 45 62 c24 34 48 67
51 74 4 7 -19 30 -58 59 -36 26 -65 50 -65 52 0 7 53 72 59 72 3 0 79 -54 169
-119z m8630 72 c6 -12 3 -43 -10 -91 -17 -60 -23 -71 -34 -61 -14 12 -20 122
-8 153 8 21 41 20 52 -1z m-8210 -25 c7 -7 12 -24 12 -38 0 -14 -5 -31 -12
-38 -28 -28 -88 -2 -88 38 0 40 60 66 88 38z m8122 -113 c7 -8 9 -23 5 -32
-15 -41 -238 -384 -244 -376 -4 4 -20 25 -35 46 l-27 37 32 43 c18 23 36 47
40 53 5 6 -9 35 -32 67 -44 62 -42 62 -133 30 -37 -12 -40 -12 -55 9 -9 13
-15 25 -14 28 2 6 409 108 434 109 9 1 22 -6 29 -14z m-8827 -444 c70 -46 127
-85 127 -87 0 -2 -22 -38 -50 -80 -27 -42 -51 -80 -52 -84 -2 -4 -32 -2 -68 6
-35 7 -65 12 -66 11 -9 -10 -64 -110 -64 -116 0 -5 19 -29 41 -55 39 -44 41
-49 29 -72 -8 -13 -17 -23 -22 -22 -12 4 -278 351 -278 364 0 5 6 17 13 26 11
15 29 13 202 -13 105 -16 199 -28 209 -27 13 2 -37 40 -142 108 l-161 105 26
41 27 42 51 -32 c27 -18 107 -70 178 -115z m9036 121 c11 -25 6 -51 -39 -202
-28 -95 -49 -175 -46 -177 3 -3 55 25 117 63 106 63 113 66 126 49 7 -11 13
-21 13 -24 0 -3 -81 -55 -180 -115 -172 -104 -181 -108 -195 -90 -8 10 -15 23
-15 27 0 5 22 81 49 170 26 89 51 174 55 189 6 26 0 24 -120 -48 -69 -42 -127
-74 -128 -73 -2 2 -8 13 -14 25 -10 19 3 28 166 127 97 59 182 107 188 107 6
0 17 -13 23 -28z m209 -441 c70 -36 112 -104 112 -181 0 -70 -50 -135 -140
-181 -55 -27 -149 -31 -195 -7 -64 34 -115 113 -115 178 0 140 208 258 338
191z m207 -34 c8 -24 5 -38 -20 -83 -41 -76 -62 -60 -40 31 6 29 4 32 -37 50
-23 11 -44 27 -46 36 -3 14 5 15 65 5 61 -10 69 -14 78 -39z m-9395 -27 c11
-11 20 -27 20 -35 0 -16 -34 -55 -48 -55 -23 0 -52 34 -52 60 0 47 46 64 80
30z m-366 -41 c86 -43 134 -125 124 -214 -6 -50 -78 -215 -95 -215 -6 0 -44
16 -85 35 -40 19 -79 33 -87 30 -21 -8 -53 5 -47 20 3 8 -21 24 -71 46 -41 18
-77 38 -79 44 -6 14 67 174 97 217 49 69 150 84 243 37z m9221 -183 c7 -22 5
-30 -13 -48 -18 -18 -26 -20 -49 -12 -21 7 -29 17 -31 41 -6 62 71 78 93 19z
m537 -93 c9 -26 16 -48 15 -49 -12 -7 -390 -154 -392 -152 -9 10 -34 82 -30
86 5 5 373 159 385 161 3 1 13 -20 22 -46z m-10186 -1036 l31 -92 109 -5 109
-5 -85 -64 c-47 -35 -86 -65 -87 -66 -2 -1 13 -47 31 -103 19 -56 32 -102 29
-102 -3 0 -44 27 -90 60 -49 35 -89 57 -96 53 -7 -4 -45 -31 -85 -61 -41 -30
-75 -52 -77 -50 -2 2 9 46 25 98 17 52 30 97 30 101 0 4 -39 35 -87 70 l-88
64 112 3 112 3 32 99 c18 55 35 97 39 94 3 -3 19 -47 36 -97z m10330 0 l31
-92 106 -3 c59 -1 107 -6 107 -10 0 -4 -38 -34 -84 -67 l-84 -61 33 -102 c18
-56 30 -102 27 -102 -3 0 -43 27 -89 61 -51 37 -88 57 -95 53 -7 -5 -46 -32
-86 -62 -41 -30 -75 -52 -78 -50 -2 3 10 44 26 93 17 49 30 94 30 101 0 7 -39
41 -87 76 l-87 63 112 3 111 3 32 99 c18 55 35 97 39 94 3 -3 19 -47 36 -97z
m-10231 -672 c6 -1 8 -25 7 -53 l-4 -50 -84 6 -85 5 3 -94 3 -94 81 -3 81 -3
-5 -47 c-2 -26 -6 -48 -7 -50 -2 -2 -98 0 -214 4 l-211 7 0 48 0 49 104 0 103
0 7 61 c3 34 6 74 6 89 l0 28 -105 7 -105 7 0 49 0 49 208 -6 c114 -3 212 -7
217 -9z m10085 -39 l0 -54 95 4 c52 2 137 6 189 8 l94 4 5 -46 c3 -26 3 -50 1
-53 -2 -3 -87 -8 -189 -12 -103 -3 -188 -7 -189 -8 -2 -2 0 -28 3 -56 l7 -53
-33 0 -33 0 0 123 c0 67 -3 139 -6 160 -6 36 -6 37 25 37 31 0 31 0 31 -54z
m253 -286 l137 0 0 -28 c0 -23 -20 -46 -122 -134 -68 -59 -136 -120 -152 -137
l-30 -31 147 0 147 0 0 -30 0 -30 -159 0 c-87 0 -186 3 -220 6 -59 7 -61 8
-61 35 0 24 23 49 144 156 165 148 166 140 -16 142 l-118 1 0 31 0 32 83 -6
c45 -4 144 -7 220 -7z m-10542 -142 c191 -63 218 -75 222 -95 2 -13 -1 -27 -7
-32 -16 -13 -409 -202 -412 -198 -2 1 -4 27 -6 57 l-3 54 63 25 c44 17 61 29
57 39 -3 7 -5 40 -5 72 0 57 0 58 -32 64 -96 19 -108 25 -108 56 0 17 3 30 7
30 4 0 105 -32 224 -72z m10276 -262 c1 -1 -5 -41 -13 -90 -9 -48 -14 -90 -11
-92 2 -2 31 -7 64 -10 l60 -7 6 54 c4 30 7 71 7 92 0 35 2 37 31 37 31 0 31
-1 26 -37 -4 -21 -9 -64 -13 -95 l-7 -56 49 -7 c27 -3 61 -9 76 -11 l26 -5 7
95 7 96 29 0 c16 0 29 -3 29 -7 0 -5 -7 -70 -17 -145 l-16 -138 -31 1 c-17 0
-112 10 -211 22 -166 21 -180 24 -183 44 -2 11 4 74 12 139 9 65 16 122 16
126 0 7 47 1 57 -6z m-10037 -79 c0 -28 -19 -56 -121 -176 -67 -78 -119 -144
-117 -146 2 -3 58 2 123 10 161 20 157 21 153 -12 -3 -27 -6 -28 -88 -38 l-84
-10 63 -12 c99 -18 154 -72 172 -168 19 -99 -48 -188 -164 -220 -81 -22 -137
-15 -199 24 -80 51 -113 169 -69 251 23 44 86 89 148 106 62 16 27 17 -104 0
-87 -11 -103 -10 -108 2 -11 30 -2 47 63 121 94 105 192 224 189 228 -2 1 -67
-5 -144 -15 l-141 -18 -5 25 c-3 14 -4 28 -2 29 5 5 352 49 398 51 36 1 37 0
37 -32z m10240 -283 l135 -7 -10 -54 c-7 -39 -13 -52 -23 -48 -19 7 -252 19
-252 13 0 -3 52 -42 115 -88 67 -48 115 -89 115 -99 0 -12 -34 -25 -147 -57
l-147 -40 109 -31 c61 -17 122 -34 136 -37 22 -5 25 -10 21 -36 -2 -16 -7 -30
-10 -30 -7 0 -406 132 -410 136 -2 1 -1 15 2 31 6 26 14 30 124 59 64 18 132
38 151 46 l35 14 -127 93 c-70 51 -127 99 -127 106 0 43 10 48 94 41 45 -3
142 -9 216 -12z m-193 -494 c103 -28 193 -52 199 -54 7 -3 9 -16 7 -30 -5 -22
-33 -40 -184 -118 -98 -51 -175 -96 -171 -99 4 -4 66 -23 137 -42 122 -32 130
-35 127 -57 -1 -13 -4 -26 -7 -28 -2 -2 -39 5 -83 17 -43 11 -81 21 -84 21 -3
0 16 -21 42 -48 60 -59 75 -107 59 -182 -13 -63 -63 -123 -116 -141 -110 -36
-275 38 -315 140 -17 46 -11 116 16 169 27 53 58 79 106 89 44 8 46 21 4 29
-19 3 -38 13 -41 21 -14 37 17 62 187 150 l171 90 -106 27 c-185 49 -173 43
-167 71 2 14 10 25 18 25 7 0 97 -23 201 -50z m-9900 -7 c6 -27 10 -49 8 -51
-1 -1 -94 -27 -206 -57 -147 -40 -205 -51 -210 -43 -9 15 -22 79 -17 84 4 3
392 111 408 113 3 1 10 -20 17 -46z m80 -255 c6 -24 11 -43 10 -44 -1 -1 -65
-22 -142 -48 -158 -52 -193 -74 -201 -127 -5 -28 -1 -41 21 -67 38 -45 86 -43
252 10 73 23 135 39 137 37 2 -2 6 -13 8 -23 2 -16 -12 -24 -82 -48 -162 -55
-235 -70 -279 -58 -49 13 -93 62 -110 123 -23 80 4 148 72 184 25 12 270 97
297 102 3 1 11 -18 17 -41z m112 -321 c10 -30 5 -47 -64 -207 -41 -95 -74
-174 -72 -175 1 -1 58 23 126 53 118 53 124 55 137 37 8 -10 14 -22 14 -26 0
-6 -380 -179 -394 -179 -4 0 -11 11 -16 25 -8 21 1 48 51 161 33 75 69 158 79
185 l19 48 -22 -8 c-12 -5 -73 -32 -135 -60 l-113 -50 -12 26 c-7 17 -8 28 -2
30 6 2 93 41 195 88 102 46 188 84 192 84 3 1 11 -14 17 -32z m9361 -144 c33
-19 50 -51 50 -93 0 -17 3 -30 8 -30 4 0 58 7 120 16 62 9 115 14 117 12 3 -2
-4 -22 -15 -43 -11 -22 -20 -45 -20 -51 0 -8 -32 -14 -92 -19 -126 -10 -143
-17 -92 -37 21 -9 60 -26 86 -38 l48 -21 -21 -42 c-12 -23 -22 -43 -24 -45 -2
-2 -387 167 -393 173 -9 8 91 202 111 217 28 22 81 23 117 1z m-9174 -255 c3
-13 24 -53 45 -90 22 -36 39 -71 39 -76 0 -5 -32 -45 -71 -88 -39 -44 -85 -97
-102 -118 l-31 -39 50 7 c27 4 97 14 155 23 l106 16 25 -24 c25 -25 168 -225
168 -236 0 -7 -32 -32 -41 -33 -4 0 -28 36 -55 79 l-48 79 -53 -36 c-29 -19
-53 -37 -53 -39 0 -2 25 -37 54 -78 l55 -73 -24 -16 c-23 -15 -24 -14 -72 59
-26 41 -52 75 -56 75 -12 0 -116 -74 -117 -83 0 -4 19 -33 43 -64 23 -30 48
-63 55 -73 11 -15 9 -20 -12 -33 l-25 -17 -80 115 c-45 63 -81 118 -81 123 0
5 63 52 140 106 77 54 140 100 140 102 0 3 -19 3 -42 0 -24 -3 -99 -13 -168
-21 -69 -8 -137 -18 -151 -21 -20 -4 -30 1 -43 21 -17 26 -17 27 37 88 73 85
238 287 234 287 -2 0 -89 -41 -193 -91 -104 -50 -190 -87 -191 -82 -2 4 -11
24 -21 43 l-18 35 191 97 c104 53 193 97 197 97 4 1 10 -9 14 -21z m9297 -197
c8 -7 -23 -91 -34 -91 -4 0 -89 40 -190 89 -101 50 -185 88 -187 86 -3 -3 149
-197 240 -306 35 -42 37 -47 25 -72 -9 -22 -17 -26 -37 -22 -21 3 -146 21
-357 49 -18 3 -33 3 -33 2 0 -2 70 -52 155 -111 132 -93 153 -111 144 -126
-14 -28 -20 -29 -182 -50 -83 -11 -172 -23 -197 -27 l-45 -7 122 -86 121 -85
-17 -23 -17 -23 -175 122 c-96 67 -175 124 -177 125 -9 8 33 56 52 60 11 2
100 15 196 27 l175 23 -118 83 -118 83 30 35 c17 19 37 47 45 62 l15 29 133
-23 c195 -34 190 -36 126 40 -29 35 -75 89 -102 120 l-49 57 38 73 39 73 185
-90 c103 -49 189 -93 194 -96z m-8792 -605 c50 -75 51 -106 4 -153 -31 -31
-39 -35 -78 -30 -23 2 -51 8 -62 11 -18 6 -24 -4 -61 -109 l-40 -117 -38 47
-38 46 37 92 c21 51 40 99 43 107 3 7 -27 -12 -67 -43 -40 -31 -77 -57 -81
-57 -9 0 -64 70 -59 75 2 2 78 62 169 134 l165 130 33 -37 c19 -20 51 -63 73
-96z m7959 -13 c0 -2 -22 -30 -48 -61 -79 -94 -78 -84 -20 -126 l51 -39 19 24
c10 13 34 48 54 76 34 52 35 52 59 37 l24 -15 -55 -71 c-30 -38 -54 -74 -54
-78 0 -7 104 -90 113 -90 3 0 28 34 56 75 29 41 56 75 60 75 4 0 15 -8 24 -18
15 -16 11 -24 -59 -117 -42 -55 -82 -106 -89 -114 -12 -12 -39 5 -185 114 -94
70 -169 131 -168 135 2 3 41 56 87 117 83 109 85 111 108 96 13 -8 23 -17 23
-20z m-7815 -157 c39 -17 95 -88 95 -123 0 -16 -8 -27 -26 -33 -39 -15 -42
-13 -37 29 4 31 1 42 -18 60 -30 28 -65 27 -84 -2 -14 -21 -14 -32 -1 -100 18
-91 9 -134 -35 -171 -75 -63 -187 -28 -240 76 -26 51 -24 64 14 79 17 7 35 14
39 17 4 2 5 -19 1 -46 -5 -45 -3 -53 20 -76 32 -32 60 -33 88 -5 18 18 20 28
15 68 -18 122 -18 145 2 177 21 33 73 63 110 64 12 0 38 -6 57 -14z m205 -226
c0 -10 -300 -285 -313 -287 -7 -1 -24 13 -40 32 l-27 33 156 147 157 146 33
-32 c19 -18 34 -36 34 -39z m7373 7 c51 -22 96 -65 124 -120 21 -43 25 -60 20
-110 -3 -39 -14 -71 -30 -95 -34 -51 -148 -173 -158 -170 -13 5 -309 281 -309
289 0 15 177 193 205 205 39 17 107 17 148 1z m-7222 -149 c76 -73 145 -136
153 -140 12 -7 10 -23 -11 -104 -13 -53 -22 -99 -19 -102 3 -2 47 12 98 32
l92 37 24 -25 24 -24 -130 -43 -131 -43 -61 -73 c-34 -40 -65 -73 -69 -73 -4
0 -22 15 -39 33 l-32 33 58 68 c59 67 59 68 79 176 l19 109 -38 43 -38 43
-132 -137 -133 -138 -37 34 -38 33 135 140 135 141 -37 28 c-20 16 -41 32 -46
35 -8 5 18 45 31 48 2 1 66 -58 143 -131z m6989 -233 c136 -157 138 -160 120
-179 -19 -19 -22 -19 -216 3 -108 12 -198 20 -201 18 -2 -3 15 -27 39 -54 24
-27 65 -74 92 -106 49 -58 49 -58 29 -78 -19 -20 -20 -20 -161 143 l-141 163
23 24 24 23 187 -21 c104 -12 190 -19 192 -17 2 2 -36 50 -86 107 -84 97 -88
105 -73 121 9 9 21 16 25 15 5 -2 71 -74 147 -162z m-371 -310 c105 -66 191
-123 191 -126 0 -3 -19 -19 -43 -36 l-42 -31 -54 39 c-60 43 -64 43 -138 -19
l-33 -27 19 -64 20 -64 -22 -18 c-12 -10 -24 -18 -27 -19 -6 0 -110 428 -110
452 0 16 28 40 42 35 3 -1 92 -56 197 -122z m-6068 84 c46 -16 97 -55 120 -93
23 -38 25 -121 5 -171 -8 -19 -14 -35 -12 -35 2 0 25 34 52 75 27 41 52 75 56
75 7 0 174 -105 191 -120 9 -8 -13 -50 -25 -50 -4 0 -31 18 -60 40 l-53 40
-32 -52 c-18 -29 -33 -55 -33 -58 0 -3 25 -20 55 -38 30 -18 55 -36 55 -40 0
-4 -7 -15 -14 -25 -13 -17 -17 -16 -64 17 -27 20 -54 36 -60 36 -5 0 -33 -36
-61 -80 -29 -44 -54 -80 -57 -80 -2 0 -22 12 -44 26 l-39 26 38 57 c21 31 51
76 66 101 l28 45 -49 -51 c-58 -59 -105 -78 -180 -72 -187 16 -234 239 -79
376 65 57 128 73 196 51z m5615 -198 c7 -31 5 -34 -12 -26 -41 17 -60 16 -87
-5 -16 -13 -27 -31 -27 -45 0 -41 35 -55 131 -55 72 0 91 -3 113 -21 106 -83
46 -236 -107 -273 -25 -6 -29 -3 -42 28 -20 47 -19 60 3 51 31 -14 61 -17 87
-11 31 8 56 53 44 83 -13 35 -45 46 -117 40 -79 -8 -123 8 -152 55 -54 89 0
192 115 218 37 8 43 4 51 -39z m-229 -108 c7 -15 12 -27 10 -28 -1 -1 -39 -19
-84 -40 -46 -21 -83 -40 -83 -42 0 -4 51 -106 55 -111 2 -2 40 17 85 43 45 26
83 45 83 43 1 -2 7 -12 14 -24 11 -20 6 -24 -72 -64 l-84 -42 34 -69 35 -68
57 33 c32 17 70 40 84 49 25 17 26 17 38 -10 10 -21 9 -28 -1 -35 -31 -20
-240 -129 -243 -126 -9 10 -195 367 -195 374 0 7 233 141 250 143 3 1 11 -11
17 -26z m-4813 -35 c16 -6 29 -24 34 -42 5 -17 27 -100 48 -183 21 -84 42
-153 45 -153 4 0 35 54 69 119 60 115 64 119 86 109 13 -6 24 -14 24 -18 0 -6
-95 -188 -166 -317 -33 -59 -36 -62 -59 -51 -16 7 -28 24 -34 47 -5 20 -28
107 -50 194 -23 87 -41 161 -41 165 0 4 -32 -53 -71 -125 -38 -73 -73 -133
-78 -133 -4 0 -15 6 -25 13 -17 13 -12 26 80 200 55 103 102 187 106 187 4 0
19 -5 32 -12z m4540 -114 c17 -45 9 -52 -52 -47 -52 5 -61 3 -89 -21 -61 -52
-67 -136 -15 -231 15 -27 42 -60 61 -72 65 -44 160 -21 199 47 21 36 28 37 36
6 8 -34 0 -51 -42 -80 -59 -40 -112 -58 -175 -58 -83 0 -141 37 -182 116 -72
141 -9 283 149 338 64 22 102 23 110 2z m-4041 -116 c15 -12 16 -36 10 -244
l-6 -231 -48 20 -48 21 -3 70 -3 70 -60 24 -60 24 -46 -52 c-43 -49 -48 -51
-70 -40 -13 7 -26 15 -29 17 -6 6 323 333 335 333 6 0 19 -6 28 -12z m3676
-39 c62 -22 83 -122 36 -173 -14 -15 -25 -29 -25 -31 0 -2 43 -39 96 -81 l96
-76 -57 -20 -56 -19 -81 71 c-45 38 -83 68 -85 66 -2 -2 10 -40 27 -85 16 -45
30 -84 30 -86 0 -4 -93 -36 -96 -32 -5 6 -134 390 -134 401 0 7 43 26 98 44
112 36 109 35 151 21z m-3362 -79 c92 -33 176 -60 186 -60 9 0 17 -4 17 -9 0
-6 -16 -74 -35 -153 -38 -152 -39 -194 -4 -229 13 -13 33 -19 62 -19 73 0 90
29 142 238 25 104 29 112 51 112 13 0 24 -5 24 -11 0 -16 -59 -250 -72 -284
-14 -38 -45 -73 -80 -91 -61 -31 -172 -5 -216 51 -36 45 -36 82 -3 220 17 69
31 129 31 131 0 11 -93 45 -99 37 -4 -4 -34 -84 -66 -178 -31 -93 -58 -171
-59 -172 -6 -7 -96 34 -93 42 3 5 30 86 62 178 64 185 64 180 -7 192 -21 4
-38 10 -38 13 1 19 13 52 20 52 5 0 84 -27 177 -60z m3119 -127 c46 -164 49
-224 16 -271 -32 -45 -90 -72 -152 -72 -104 0 -129 33 -191 250 -22 74 -39
136 -39 136 0 1 12 4 28 7 15 3 34 8 43 12 12 5 22 -20 54 -130 40 -145 64
-192 107 -213 22 -10 33 -10 62 2 69 29 74 83 21 263 -19 67 -35 126 -35 132
0 8 13 14 41 20 3 0 23 -61 45 -136z m-443 3 c63 -27 118 -111 133 -203 19
-122 -82 -243 -203 -243 -43 0 -119 34 -136 61 -10 17 -13 14 -32 -24 -11 -23
-35 -52 -53 -64 -41 -27 -112 -39 -155 -26 -30 9 -32 12 -29 48 2 22 5 42 8
44 2 2 16 -8 30 -22 33 -33 85 -36 114 -7 44 44 16 89 -76 121 -39 14 -75 34
-89 50 -77 92 -5 219 124 219 71 0 84 -8 75 -46 -11 -45 -14 -47 -40 -18 -21
21 -31 25 -56 20 -41 -8 -58 -23 -58 -52 0 -32 23 -50 106 -85 38 -16 69 -29
69 -29 0 0 -1 21 -3 46 -12 145 143 265 271 210z m-2079 -26 c112 -25 146 -52
146 -116 0 -51 -35 -99 -80 -109 -17 -4 -30 -11 -30 -16 0 -17 72 -190 78
-185 2 3 53 88 112 188 97 165 110 183 136 186 l29 3 56 -232 56 -231 -36 6
c-20 3 -46 6 -58 6 -16 0 -23 6 -23 20 0 10 -5 41 -11 68 l-10 49 -71 10 -70
9 -30 -60 c-29 -59 -31 -61 -66 -59 -21 1 -57 5 -81 10 l-44 8 -37 110 -37
110 -18 -98 -18 -98 -46 7 c-25 4 -48 8 -50 10 -3 3 64 370 75 407 7 21 18 21
128 -3z m1528 -79 l4 -29 -96 -7 -96 -6 4 -62 c2 -34 5 -63 6 -64 1 -2 42 2
90 8 49 5 90 8 91 7 1 -2 5 -15 9 -30 l6 -26 -89 -4 c-49 -1 -92 -6 -95 -9 -4
-3 -3 -38 0 -77 l7 -71 46 5 c25 3 67 9 94 13 50 9 47 11 51 -41 1 -14 -274
-43 -285 -30 -9 11 -41 413 -34 421 5 5 117 17 266 30 11 1 18 -9 21 -28z
m-869 -8 c2 -5 -4 -89 -13 -188 -11 -125 -13 -182 -6 -187 6 -4 38 -8 72 -8
l61 0 -5 -31 c-4 -30 -6 -31 -46 -25 -22 3 -76 8 -120 12 l-79 7 7 66 c3 36
11 132 18 213 l12 148 47 0 c26 0 50 -3 52 -7z m487 -11 c79 -39 80 -136 2
-188 l-32 -22 66 -97 c36 -53 64 -98 62 -99 -1 -2 -27 -6 -56 -9 l-53 -6 -27
45 c-15 25 -42 68 -60 97 l-32 52 2 -98 3 -97 -52 0 -53 0 0 88 c0 48 -3 144
-7 214 l-6 127 44 4 c110 9 165 7 199 -11z"/>
<path d="M6207 11074 c-15 -31 -26 -58 -25 -60 2 -2 23 -6 46 -10 49 -8 51 0
24 79 l-17 48 -28 -57z"/>
<path d="M7211 11023 c-58 -59 -94 -217 -62 -276 17 -32 59 -50 95 -41 87 22
156 235 100 311 -31 42 -94 44 -133 6z"/>
<path d="M8187 10635 c-30 -61 -33 -74 -21 -79 34 -13 63 -5 88 25 35 41 34
82 -2 108 l-28 20 -37 -74z"/>
<path d="M5680 10449 c-1660 -66 -3167 -1056 -3904 -2564 -638 -1304 -609
-2876 75 -4147 55 -101 141 -251 153 -265 1 -2 34 6 73 17 93 26 320 64 508
87 212 25 725 25 910 -1 621 -85 1110 -278 1572 -622 242 -180 433 -366 671
-657 l122 -148 0 103 0 103 -45 52 c-25 28 -45 55 -45 60 1 4 23 -17 50 -47
29 -32 50 -48 50 -39 0 8 7 60 15 115 40 275 49 658 20 889 -60 489 -216 838
-559 1251 -50 59 -252 272 -450 473 -199 202 -413 427 -477 501 -455 528 -736
1090 -840 1677 -27 151 -37 464 -20 624 85 809 614 1556 1461 2062 179 107
440 232 625 300 83 31 159 58 171 61 14 4 43 -9 95 -41 l74 -48 -177 -5 c-122
-3 -181 -9 -190 -17 -10 -10 30 -13 199 -13 l212 0 58 -49 c32 -26 67 -58 77
-70 l19 -21 -395 0 c-339 0 -397 -2 -408 -15 -11 -13 36 -15 413 -15 l425 0
63 -67 63 -68 -561 -3 c-483 -2 -562 -4 -573 -17 -11 -13 55 -15 574 -15 l586
0 50 -67 c27 -38 50 -71 50 -75 0 -5 -315 -8 -700 -8 -398 0 -700 -4 -700 -9
0 -5 10 -11 23 -15 12 -3 324 -6 692 -6 369 0 680 0 692 0 17 0 31 -16 58 -63
19 -35 35 -67 35 -70 0 -4 -360 -7 -799 -7 -701 0 -800 -2 -805 -15 -5 -13 90
-15 812 -15 l818 0 32 -65 c18 -36 32 -68 32 -70 0 -3 -397 -6 -882 -7 l-881
-3 -10 -28 c-5 -16 -6 -31 -3 -34 15 -16 414 -78 611 -96 22 -2 -116 -4 -307
-5 -302 -2 -348 -4 -348 -17 0 -13 113 -15 959 -15 l959 0 26 -65 c14 -36 26
-70 26 -75 0 -7 -349 -10 -1005 -10 -663 0 -1005 -3 -1005 -10 0 -7 343 -10
1010 -10 l1011 0 20 -47 c11 -27 23 -60 26 -75 l6 -28 -1052 0 c-928 0 -1051
-2 -1051 -15 0 -13 124 -15 1059 -15 l1059 0 21 -62 c12 -34 21 -66 21 -70 0
-4 -488 -8 -1085 -8 -956 0 -1085 -2 -1085 -15 0 -13 131 -15 1091 -17 l1092
-3 12 -35 c7 -20 16 -50 20 -68 l7 -32 -1111 0 c-979 0 -1111 -2 -1111 -15 0
-13 133 -15 1116 -17 l1117 -3 12 -42 c7 -23 15 -53 19 -67 l6 -26 -1130 0
c-998 0 -1130 -2 -1130 -15 0 -13 133 -15 1134 -15 l1134 0 12 -52 c6 -29 13
-63 16 -75 l6 -23 -1141 0 c-751 0 -1141 -3 -1141 -10 0 -6 392 -11 1142 -12
l1142 -3 12 -40 c6 -22 14 -55 17 -72 l7 -33 -1146 0 c-912 0 -1145 -3 -1142
-12 4 -10 244 -14 1150 -16 l1146 -2 7 -48 c3 -26 9 -57 12 -69 l5 -23 -1141
0 c-1008 0 -1141 -2 -1141 -15 0 -13 134 -15 1144 -15 l1144 0 11 -63 c6 -35
11 -67 11 -70 0 -4 -508 -7 -1130 -7 -998 0 -1130 -2 -1130 -15 0 -13 133 -15
1134 -15 l1134 0 7 -57 c4 -31 9 -62 12 -70 4 -11 -181 -13 -1111 -13 -985 0
-1116 -2 -1116 -15 0 -13 130 -15 1114 -15 l1114 0 6 -27 c3 -16 8 -49 12 -75
l6 -48 -1091 0 c-721 0 -1091 -3 -1091 -10 0 -7 370 -10 1089 -10 600 0 1092
-3 1094 -7 3 -5 8 -38 12 -75 l7 -68 -1061 0 c-701 0 -1061 -3 -1061 -10 0 -7
848 -10 2524 -10 l2523 0 26 -97 c37 -136 93 -425 111 -569 19 -150 41 -488
33 -509 -6 -14 -160 -15 -1514 -15 -2751 1 -2835 1 -2828 -10 4 -7 235 -10
661 -10 l655 0 -3 -70 -3 -71 -587 0 c-512 1 -588 -1 -588 -14 0 -13 76 -15
583 -15 321 0 586 -2 588 -4 2 -2 3 -36 1 -75 l-4 -71 -520 0 c-411 0 -519 -3
-516 -12 4 -10 119 -14 521 -16 l517 -2 0 -70 0 -70 -461 0 c-409 0 -460 -2
-449 -15 11 -13 74 -15 459 -15 l446 0 -3 -70 -4 -70 -394 0 c-346 0 -393 -2
-388 -15 5 -13 59 -15 396 -15 l390 0 -6 -22 c-3 -13 -6 -44 -6 -70 l0 -48
-335 0 c-293 0 -334 -2 -329 -15 5 -13 51 -15 331 -15 l324 0 -3 -72 -3 -73
-273 -3 c-176 -1 -271 -6 -267 -12 4 -6 108 -10 271 -10 l264 0 0 -22 c0 -13
-3 -47 -6 -75 l-7 -53 -219 0 c-171 0 -219 -3 -216 -12 4 -10 59 -14 220 -16
l215 -2 -3 -23 c-2 -12 -6 -43 -9 -70 l-6 -47 -174 0 c-151 0 -174 -2 -169
-15 5 -13 34 -15 175 -15 l169 0 -4 -22 c-3 -13 -8 -44 -11 -70 l-6 -48 -135
0 c-112 0 -134 -2 -134 -15 0 -13 21 -15 130 -15 148 0 138 8 124 -94 l-7 -46
-103 0 c-86 0 -104 -3 -104 -15 0 -12 18 -15 101 -15 l100 0 -7 -47 c-15 -102
-11 -98 -97 -101 -99 -4 -101 -22 -2 -22 85 0 83 3 64 -93 l-12 -57 -63 0
c-50 0 -64 -3 -64 -15 0 -12 13 -15 61 -15 l62 0 -7 -32 c-4 -18 -9 -50 -13
-70 l-6 -38 -58 0 c-46 0 -59 -3 -59 -15 0 -12 13 -15 56 -15 41 0 55 -3 51
-13 -2 -7 -10 -38 -17 -70 l-11 -57 -60 0 c-46 0 -59 -3 -59 -15 0 -12 13 -15
55 -15 30 0 55 -2 55 -5 0 -3 -7 -35 -16 -70 l-16 -64 -66 -3 c-41 -2 -67 -8
-70 -15 -3 -10 14 -13 62 -13 36 0 66 -4 66 -10 0 -11 3 -9 -169 -111 -136
-80 -309 -202 -441 -312 -114 -95 -325 -307 -438 -440 l-92 -108 0 -102 c0
-85 2 -99 13 -87 8 8 79 94 159 190 419 503 867 831 1423 1039 347 131 708
197 1125 208 342 8 698 -25 1009 -93 64 -14 127 -28 141 -31 23 -4 30 4 72 74
458 773 675 1636 637 2540 -70 1671 -1053 3169 -2564 3907 -538 264 -1181 430
-1739 451 -77 3 -172 7 -211 8 -38 2 -153 0 -255 -4z m677 -134 c143 -15 433
-61 442 -70 2 -3 -93 -5 -212 -5 l-216 0 -108 45 c-124 51 -120 52 94 30z
m-222 -73 c-3 -3 -11 0 -18 7 -9 10 -8 11 6 5 10 -3 15 -9 12 -12z m256 -98
c85 -36 156 -68 158 -70 2 -2 -52 -4 -120 -4 l-124 1 -72 69 -73 70 39 0 c25
0 91 -23 192 -66z m774 9 c279 -89 287 -81 -91 -82 l-331 -1 -144 66 c-79 37
-146 68 -149 71 -2 2 121 3 275 1 l280 -4 160 -51z m-419 -172 c66 -33 126
-64 134 -70 11 -8 -51 -11 -210 -11 l-226 0 -57 70 -57 70 149 0 148 0 119
-59z m845 20 c52 -22 123 -53 159 -70 l65 -30 -378 -1 -378 0 -127 70 -127 70
346 0 347 0 93 -39z m-543 -188 c160 -103 180 -92 -174 -92 l-310 -1 -45 68
c-24 37 -45 70 -47 75 -2 4 106 7 241 7 l244 0 91 -57z m867 38 c22 -10 55
-27 74 -39 l34 -20 -71 -36 -72 -36 -276 0 -277 0 -91 61 c-50 34 -98 68 -106
75 -12 12 45 14 365 14 347 0 384 -2 420 -19z m211 -116 c18 -13 16 -14 -26
-14 -42 0 -44 1 -26 14 11 8 23 15 26 15 3 0 15 -7 26 -15z m-841 -80 c32 -22
74 -54 94 -72 l36 -32 -377 -1 -376 0 -36 64 c-20 35 -36 68 -36 73 0 4 143 8
319 8 l318 -1 58 -39z m531 32 c4 -3 -184 -88 -258 -116 -24 -9 -34 -4 -107
53 -44 35 -78 65 -76 67 5 5 436 2 441 -4z m458 -42 c39 -24 86 -56 105 -70
l35 -25 -350 1 -349 0 130 66 c72 36 144 69 160 72 17 4 68 6 114 4 79 -3 87
-6 155 -48z m-974 -162 c-206 -68 -362 -103 -463 -102 l-92 0 -30 61 c-16 33
-31 64 -33 69 -2 5 154 9 360 8 l363 -1 -105 -35z m1251 -30 l90 -68 -451 -3
-451 -2 -70 62 c-49 44 -66 64 -57 70 7 4 201 8 431 8 l418 0 90 -67z m-978
-28 l49 -45 -189 1 -188 1 125 43 c69 24 132 44 140 44 8 0 37 -20 63 -44z
m-893 -84 c0 -4 -26 -11 -57 -15 -32 -4 -112 -14 -178 -22 -164 -21 -710 -30
-890 -15 -157 13 -372 38 -425 51 -19 4 322 8 758 9 438 1 792 -3 792 -8z
m1045 -61 l69 -70 -486 0 -486 0 -12 30 c-7 17 -11 32 -9 35 2 2 72 19 154 38
l150 34 275 2 276 1 69 -70z m1039 2 l79 -67 -469 -3 -469 -2 -70 70 -70 70
460 0 460 0 79 -68z m-2034 -41 c5 -11 10 -22 10 -25 0 -3 -102 -5 -227 -5
-196 2 -215 3 -138 10 50 5 133 15 185 23 138 20 158 19 170 -3z m1157 -127
c32 -36 60 -70 61 -75 2 -5 -201 -9 -523 -9 l-526 0 -29 66 c-17 36 -30 70
-30 75 0 5 205 9 494 9 l495 0 58 -66z m1065 -1 c38 -37 68 -71 68 -75 0 -5
-214 -8 -476 -8 l-477 0 -54 58 c-96 102 -140 92 399 92 l472 0 68 -67z m-917
-172 c30 -37 55 -71 55 -75 0 -3 -254 -6 -565 -6 l-566 0 -20 48 c-11 26 -23
59 -26 75 l-5 27 535 0 536 0 56 -69z m1087 2 c38 -37 68 -71 68 -75 0 -10
-981 -10 -995 0 -13 9 -105 128 -105 136 0 3 217 6 482 6 l482 0 68 -67z
m-957 -170 c22 -31 44 -63 48 -70 7 -11 -98 -13 -599 -11 l-608 3 -18 60 c-10
33 -18 63 -18 68 0 4 260 7 578 7 l577 0 40 -57z m1106 5 c25 -29 50 -61 58
-70 13 -17 -12 -18 -500 -18 l-514 1 -48 69 -48 70 504 0 505 0 43 -52z m-986
-180 c22 -34 42 -65 43 -70 2 -4 -283 -7 -634 -6 l-637 3 -12 42 c-7 23 -15
53 -19 67 l-6 26 612 0 613 0 40 -62z m1118 20 c19 -24 42 -55 52 -70 l17 -28
-523 0 -524 0 -29 48 c-17 26 -36 57 -44 70 l-14 22 515 0 516 0 34 -42z
m-1010 -193 c20 -35 37 -67 37 -70 0 -3 -299 -5 -664 -5 l-664 0 -16 65 c-9
35 -16 67 -16 70 0 3 289 5 643 5 l643 0 37 -65z m1151 1 c26 -35 46 -66 46
-70 0 -3 -240 -6 -533 -6 l-533 0 -37 65 c-20 35 -37 67 -37 70 0 3 236 5 524
5 l525 0 45 -64z m-1057 -171 c18 -33 33 -66 33 -73 0 -10 -141 -12 -687 -10
l-687 3 -11 45 c-6 25 -15 57 -19 73 l-6 27 672 -2 673 -3 32 -60z m1172 -3
c22 -38 41 -71 41 -75 0 -4 -243 -6 -541 -5 l-541 3 -40 73 -40 72 540 0 540
0 41 -68z m-1084 -172 c19 -38 35 -72 35 -75 0 -3 -321 -5 -714 -5 l-715 0
-11 58 c-6 31 -14 65 -16 75 -5 16 33 17 690 17 l696 0 35 -70z m1187 0 c21
-36 38 -68 38 -72 0 -5 -247 -8 -550 -8 l-550 0 -35 70 c-19 38 -35 72 -35 75
0 3 246 4 547 3 l547 -3 38 -65z m-1108 -172 c14 -35 26 -66 26 -70 0 -5 -330
-8 -734 -8 l-733 0 -6 38 c-4 20 -9 52 -13 70 l-6 32 719 0 720 0 27 -62z
m1204 -3 c18 -36 32 -68 32 -70 0 -3 -253 -4 -562 -3 l-561 3 -28 68 -28 67
557 0 558 0 32 -65z m-1137 -160 c11 -27 22 -58 25 -67 5 -17 -35 -18 -749
-18 l-755 0 -7 48 c-3 26 -9 57 -12 70 l-5 22 742 -2 742 -3 19 -50z m1218
-11 c17 -36 31 -68 31 -70 0 -2 -256 -4 -570 -4 -313 0 -570 2 -570 5 0 2 -11
34 -25 70 l-24 65 564 0 563 0 31 -66z m-1152 -169 c12 -33 22 -63 22 -67 1
-5 -345 -8 -768 -8 l-769 0 -5 23 c-3 12 -9 43 -12 70 l-7 47 758 -2 759 -3
22 -60z m1221 13 c11 -29 23 -61 27 -70 7 -17 -24 -18 -568 -18 l-575 0 -21
62 c-12 34 -21 66 -21 70 0 4 256 8 569 8 l568 0 21 -52z m-1168 -184 c11 -36
20 -70 20 -75 0 -13 -1557 -12 -1565 1 -3 5 -8 39 -12 75 l-6 65 771 0 771 0
21 -66z m1237 1 c12 -33 22 -66 22 -73 1 -10 -118 -12 -576 -10 l-578 3 -18
55 c-9 30 -20 63 -23 73 -5 16 25 17 573 15 l578 -3 22 -60z m-1191 -162 c8
-32 18 -66 20 -75 5 -17 -38 -18 -794 -18 l-799 0 -7 53 c-3 28 -6 62 -6 75
l0 22 785 0 784 0 17 -57z m1244 2 c9 -27 20 -60 24 -73 l7 -22 -587 2 -588 3
-17 67 c-9 37 -14 70 -11 73 3 3 264 4 580 3 l575 -3 17 -50z m-1078 -1395
c-2 -36 -5 -66 -6 -67 -1 -1 -375 -3 -832 -3 l-829 -1 -3 70 -3 71 838 -2 838
-3 -3 -65z m1286 0 l-3 -70 -600 -1 -600 0 -3 70 -3 71 606 0 606 0 -3 -70z
m-1290 -172 l-3 -73 -829 -3 c-457 -1 -834 2 -838 6 -5 5 -6 39 -2 75 l7 67
834 0 834 0 -3 -72z m1288 26 c-3 -26 -6 -60 -6 -75 l0 -29 -599 0 c-330 0
-602 4 -605 9 -3 4 -3 38 1 75 l6 66 605 0 605 0 -7 -46z m-1296 -181 c0 -27
-3 -58 -6 -70 l-6 -23 -829 0 -829 0 0 70 0 70 835 0 835 0 0 -47z m1286 16
c-3 -17 -6 -49 -6 -70 l0 -39 -606 0 -607 0 7 53 c3 28 6 60 6 70 0 16 36 17
606 17 l607 0 -7 -31z m-1302 -196 c-3 -32 -7 -64 -10 -70 -3 -10 -177 -13
-829 -13 l-825 0 0 48 c0 26 3 57 6 70 l6 22 829 0 829 0 -6 -57z m1282 11
c-3 -26 -6 -57 -6 -70 l0 -24 -604 0 -605 0 6 58 c2 31 6 63 9 70 3 9 132 12
605 12 l602 0 -7 -46z m-1301 -166 c-3 -24 -8 -55 -11 -70 l-6 -28 -819 0
-819 0 0 33 c0 17 3 49 6 70 l7 37 824 0 825 0 -7 -42z m1281 15 c-3 -16 -8
-47 -11 -70 l-7 -43 -600 0 -600 0 7 53 c3 28 9 60 11 70 5 16 42 17 605 17
l601 0 -6 -27z m-1310 -193 c-4 -28 -11 -62 -16 -75 l-10 -25 -805 0 -805 0 0
53 c0 28 3 62 6 75 l6 22 815 0 816 0 -7 -50z m1284 43 c0 -7 -11 -57 -25
-120 l-5 -23 -595 0 c-437 0 -595 3 -595 11 0 7 5 40 12 75 l11 64 599 0 c329
0 598 -3 598 -7z m-1310 -180 c-1 -10 -7 -43 -14 -73 l-13 -55 -802 -3 -802
-2 6 62 c4 35 8 69 10 76 4 9 174 12 810 12 760 0 805 -1 805 -17z m1265 -20
c-3 -21 -11 -55 -17 -75 l-11 -38 -594 0 c-561 0 -594 1 -589 18 2 9 8 33 12
52 3 19 10 45 15 58 l9 22 591 0 591 0 -7 -37z m-1309 -175 c-3 -18 -11 -49
-17 -70 l-10 -38 -789 0 -790 0 6 48 c3 26 7 57 10 70 l4 22 796 0 797 0 -7
-32z m1271 20 c-2 -7 -12 -39 -21 -70 l-17 -58 -590 0 c-469 0 -590 3 -586 13
2 6 10 38 17 70 l13 57 595 0 c471 0 593 -3 589 -12z m-1307 -165 c0 -5 -8
-35 -18 -68 l-18 -60 -778 -3 -777 -2 6 37 c3 21 8 53 11 71 l5 32 784 0 c432
0 785 -3 785 -7z m1236 -60 l-23 -68 -586 -3 -586 -2 9 27 c5 16 14 47 20 71
l11 42 589 0 589 0 -23 -67z m-1286 -111 c0 -4 -9 -36 -21 -70 l-21 -62 -760
0 -760 0 7 53 c3 28 9 60 11 70 5 16 51 17 775 17 423 0 769 -4 769 -8z m1245
-9 c-4 -10 -16 -42 -27 -70 l-19 -53 -581 0 c-518 0 -580 2 -574 15 3 9 13 40
22 70 l15 55 586 0 c553 0 585 -1 578 -17z m-1306 -165 c0 -7 -10 -40 -22 -73
l-22 -60 -734 -3 c-404 -1 -738 1 -742 5 -4 5 -2 38 4 76 l10 67 754 0 c596 0
753 -3 752 -12z m1235 -10 c-4 -13 -17 -47 -30 -75 l-23 -53 -570 0 c-319 0
-571 4 -571 9 0 8 17 57 39 114 l11 27 575 0 576 0 -7 -22z m-1300 -170 c-4
-13 -17 -47 -30 -75 l-23 -53 -722 0 -721 0 5 23 c3 12 9 40 12 62 4 22 8 46
10 53 4 9 160 12 740 12 l736 0 -7 -22z m1219 -15 c-8 -21 -24 -55 -34 -75
l-19 -38 -566 0 -565 0 7 23 c4 12 17 46 30 75 l23 52 570 0 570 0 -16 -37z
m-1305 -190 c-11 -27 -25 -53 -30 -60 -14 -18 -140 -22 -802 -29 l-609 -6 7
34 c4 18 9 50 13 71 l6 37 718 0 718 0 -21 -47z m1230 40 c-2 -5 -18 -37 -36
-71 l-33 -64 -372 5 c-359 5 -713 20 -723 30 -3 3 4 28 17 56 l21 51 565 0
c311 0 563 -3 561 -7z m-1843 -170 c-127 -28 -319 -78 -396 -102 -93 -30 -102
-31 -284 -31 -148 0 -186 3 -182 13 2 7 10 38 17 70 l11 57 427 -1 c235 -1
418 -3 407 -6z m1746 -10 c-6 -10 -14 -23 -18 -29 -6 -9 -47 -4 -153 16 l-145
28 163 1 c152 1 162 0 153 -16z m-71 -117 c0 -2 -8 -10 -17 -17 -16 -13 -17
-12 -4 4 13 16 21 21 21 13z m-2261 -40 c-2 -2 -29 -14 -59 -26 -30 -12 -99
-42 -153 -67 -53 -26 -99 -44 -101 -42 -3 2 3 34 12 72 l16 67 145 0 c79 0
142 -2 140 -4z m-1678 -983 c13 -16 12 -17 -3 -4 -10 7 -18 15 -18 17 0 8 8 3
21 -13z"/>
<path d="M4650 6505 l0 -475 145 0 145 0 0 195 0 195 165 0 165 0 0 -195 0
-195 145 0 145 0 0 475 0 475 -145 0 -145 0 0 -165 0 -165 -165 0 -165 0 0
165 0 165 -145 0 -145 0 0 -475z"/>
<path d="M5762 6648 c3 -282 7 -341 21 -385 33 -99 123 -188 220 -219 80 -25
305 -31 387 -10 121 31 218 121 257 239 14 43 17 107 21 380 l4 327 -146 0
-145 0 -3 -324 c-3 -310 -4 -326 -24 -352 -40 -54 -70 -69 -137 -69 -75 0
-121 24 -148 77 -17 34 -19 62 -19 353 l0 315 -146 0 -145 0 3 -332z"/>
<path d="M6870 6505 l0 -475 135 0 135 0 0 260 c0 143 3 260 8 260 4 -1 86
-118 182 -260 l175 -260 138 0 137 0 0 475 0 475 -135 0 -135 0 0 -261 c0
-159 -4 -259 -9 -257 -6 2 -88 118 -183 258 l-173 255 -138 3 -137 3 0 -476z"/>
<path d="M7980 6506 l0 -476 145 0 145 0 0 195 0 195 34 0 c63 0 91 -33 190
-215 l92 -170 162 -3 c89 -1 162 0 162 2 0 3 -35 71 -77 152 -83 160 -124 214
-186 246 l-40 20 49 17 c71 24 120 65 151 128 50 104 32 231 -45 306 -69 67
-88 70 -454 75 l-328 4 0 -476z m520 271 c39 -19 55 -61 41 -109 -16 -53 -57
-70 -176 -72 l-90 -1 -3 97 c-3 93 -2 97 20 101 36 8 181 -3 208 -16z"/>
<path d="M9020 6505 l0 -475 395 0 395 0 0 105 0 105 -252 2 -253 3 0 95 0 95
228 3 227 2 0 90 0 90 -202 2 c-112 0 -207 2 -213 3 -5 2 -18 3 -27 4 -16 1
-18 12 -18 76 l0 75 250 0 250 0 0 100 0 100 -390 0 -390 0 0 -475z"/>
<path d="M2780 3199 c-208 -19 -520 -78 -520 -99 0 -4 35 -49 78 -101 704
-849 1686 -1419 2757 -1599 191 -32 459 -60 578 -60 l79 0 -6 26 c-4 14 -14
60 -22 102 -95 469 -341 841 -762 1155 -389 289 -895 483 -1457 558 -175 23
-562 33 -725 18z"/>
<path d="M8410 3200 c-744 -65 -1410 -341 -1854 -770 -294 -284 -453 -573
-538 -977 l-24 -113 81 0 c45 0 153 7 241 15 732 70 1435 315 2044 712 291
190 495 356 746 607 173 173 374 401 374 425 0 20 -154 54 -390 86 -138 19
-533 27 -680 15z"/>
<path d="M8799 10317 c-19 -12 -53 -51 -76 -85 -65 -97 -69 -162 -11 -205 24
-18 32 -19 66 -9 77 23 164 144 166 230 2 80 -74 117 -145 69z"/>
<path d="M2774 10094 c3 -9 9 -33 12 -55 4 -22 11 -42 16 -45 5 -3 25 6 44 21
l36 27 -51 34 c-56 38 -66 41 -57 18z"/>
<path d="M1840 9407 c-70 -36 -60 -118 26 -204 59 -59 105 -83 158 -83 41 0
76 37 76 82 0 107 -178 247 -260 205z"/>
<path d="M10140 8929 c-62 -17 -62 -17 -51 -36 6 -10 19 -28 29 -41 l18 -23
32 51 c18 28 32 53 32 56 0 6 -20 4 -60 -7z"/>
<path d="M1250 8307 c23 -31 44 -57 45 -57 2 0 14 20 28 44 l24 44 -55 7 c-30
4 -62 9 -70 13 -8 3 4 -20 28 -51z"/>
<path d="M10620 8163 c-66 -22 -122 -64 -144 -104 -17 -31 -18 -40 -7 -66 28
-67 122 -76 230 -21 107 54 138 123 82 179 -35 34 -87 38 -161 12z"/>
<path d="M993 8051 c-18 -11 -41 -38 -52 -59 l-19 -38 64 -28 c36 -16 66 -27
68 -25 1 2 8 19 15 37 14 33 26 38 49 23 12 -7 11 -14 -2 -39 -9 -17 -16 -35
-16 -39 0 -8 130 -77 134 -71 51 85 25 166 -70 219 -69 39 -129 46 -171 20z"/>
<path d="M618 5601 c2 -25 6 -47 7 -49 2 -2 30 10 64 25 l62 28 -69 21 -69 21
5 -46z"/>
<path d="M795 4874 c-11 -2 -44 -9 -73 -15 -93 -19 -144 -81 -118 -143 30 -71
160 -85 274 -30 87 42 106 119 41 166 -25 18 -89 30 -124 22z"/>
<path d="M10625 4105 c-33 -33 -36 -79 -8 -122 20 -31 150 -94 206 -100 87
-10 143 49 114 119 -28 67 -142 128 -238 128 -40 0 -55 -5 -74 -25z"/>
<path d="M10464 3735 c-8 -13 -13 -28 -10 -33 3 -5 35 -21 72 -37 55 -23 67
-26 75 -14 16 25 10 50 -20 80 -39 38 -93 41 -117 4z"/>
<path d="M1792 2763 c-65 -50 -68 -64 -14 -84 32 -12 100 25 109 59 5 23 -13
72 -27 72 -4 0 -35 -21 -68 -47z"/>
<path d="M9504 2323 c-23 -4 -104 -69 -104 -83 0 -8 86 -92 197 -194 l52 -48
30 34 c39 43 52 87 39 134 -12 46 -82 122 -133 145 -41 19 -44 19 -81 12z"/>
<path d="M8890 1677 c0 -11 16 -76 25 -105 3 -9 16 -5 45 14 22 15 38 30 35
33 -10 17 -105 69 -105 58z"/>
<path d="M2904 1721 c-40 -25 -102 -96 -125 -146 -25 -54 -24 -98 4 -130 27
-32 77 -36 125 -11 62 32 141 148 142 208 0 82 -74 123 -146 79z"/>
<path d="M3921 1058 c-24 -27 -42 -50 -40 -52 9 -9 82 -36 86 -32 2 2 3 33 1
68 l-3 65 -44 -49z"/>
<path d="M7599 1123 c-15 -4 -14 -12 9 -83 l26 -79 28 15 c44 23 48 74 12 132
-14 21 -36 26 -75 15z"/>
<path d="M6907 929 c-44 -25 -58 -113 -33 -204 27 -102 63 -145 124 -145 63 0
105 83 87 172 -29 146 -104 220 -178 177z"/>
<path d="M4920 853 c-6 -32 -14 -66 -16 -76 -7 -21 17 -31 52 -23 49 13 72
112 32 140 -42 30 -56 21 -68 -41z"/>
<path d="M5252 713 c-18 -31 -30 -58 -28 -61 3 -2 25 -7 49 -9 l45 -5 -15 63
c-8 35 -16 65 -17 66 -1 1 -17 -23 -34 -54z"/>
<path d="M5974 743 c4 -43 9 -79 11 -81 6 -7 44 9 60 24 18 19 20 105 3 122
-7 7 -27 12 -46 12 l-35 0 7 -77z"/>
</g>
</svg>
